<mxfile host="app.diagrams.net" modified="2023-06-09T01:34:31.388Z" agent="Mozilla/5.0 (Windows NT 10.0; Win64; x64) AppleWebKit/537.36 (KHTML, like Gecko) Chrome/113.0.0.0 Safari/537.36" etag="WjiVBnKcpAEpggs4JPB5" version="21.3.7" type="github">
  <diagram name="第 1 页" id="4GvFkAYdrhcjdii6UWmC">
    <mxGraphModel dx="1861" dy="438" grid="0" gridSize="10" guides="1" tooltips="1" connect="1" arrows="1" fold="1" page="1" pageScale="1" pageWidth="827" pageHeight="1169" math="0" shadow="0">
      <root>
        <mxCell id="0" />
        <mxCell id="1" parent="0" />
        <mxCell id="bVFIovwjpj6VSiSoPhs9-20" value="" style="group" parent="1" vertex="1" connectable="0">
          <mxGeometry x="243" y="638" width="364" height="305" as="geometry" />
        </mxCell>
        <mxCell id="bVFIovwjpj6VSiSoPhs9-2" value="workbranch" style="shape=umlLifeline;perimeter=lifelinePerimeter;whiteSpace=wrap;html=1;container=1;dropTarget=0;collapsible=0;recursiveResize=0;outlineConnect=0;portConstraint=eastwest;newEdgeStyle={&quot;edgeStyle&quot;:&quot;elbowEdgeStyle&quot;,&quot;elbow&quot;:&quot;vertical&quot;,&quot;curved&quot;:0,&quot;rounded&quot;:0};" parent="bVFIovwjpj6VSiSoPhs9-20" vertex="1">
          <mxGeometry y="5" width="100" height="300" as="geometry" />
        </mxCell>
        <mxCell id="bVFIovwjpj6VSiSoPhs9-5" value="preprocessor" style="shape=umlLifeline;perimeter=lifelinePerimeter;whiteSpace=wrap;html=1;container=1;dropTarget=0;collapsible=0;recursiveResize=0;outlineConnect=0;portConstraint=eastwest;newEdgeStyle={&quot;edgeStyle&quot;:&quot;elbowEdgeStyle&quot;,&quot;elbow&quot;:&quot;vertical&quot;,&quot;curved&quot;:0,&quot;rounded&quot;:0};" parent="bVFIovwjpj6VSiSoPhs9-20" vertex="1">
          <mxGeometry x="264" width="100" height="300" as="geometry" />
        </mxCell>
        <mxCell id="bVFIovwjpj6VSiSoPhs9-11" value="" style="html=1;points=[];perimeter=orthogonalPerimeter;outlineConnect=0;targetShapes=umlLifeline;portConstraint=eastwest;newEdgeStyle={&quot;edgeStyle&quot;:&quot;elbowEdgeStyle&quot;,&quot;elbow&quot;:&quot;vertical&quot;,&quot;curved&quot;:0,&quot;rounded&quot;:0};" parent="bVFIovwjpj6VSiSoPhs9-5" vertex="1">
          <mxGeometry x="45" y="59" width="10" height="80" as="geometry" />
        </mxCell>
        <mxCell id="bVFIovwjpj6VSiSoPhs9-12" value="tool.cmd" style="html=1;verticalAlign=bottom;startArrow=oval;endArrow=block;startSize=8;edgeStyle=elbowEdgeStyle;elbow=vertical;curved=0;rounded=0;" parent="bVFIovwjpj6VSiSoPhs9-20" source="bVFIovwjpj6VSiSoPhs9-2" target="bVFIovwjpj6VSiSoPhs9-11" edge="1">
          <mxGeometry x="-0.0306" y="6" relative="1" as="geometry">
            <mxPoint x="83" y="66" as="sourcePoint" />
            <Array as="points">
              <mxPoint x="191" y="88" />
            </Array>
            <mxPoint as="offset" />
          </mxGeometry>
        </mxCell>
        <mxCell id="bVFIovwjpj6VSiSoPhs9-19" value="node.cmd" style="html=1;verticalAlign=bottom;startArrow=oval;endArrow=block;startSize=8;edgeStyle=elbowEdgeStyle;elbow=vertical;curved=0;rounded=0;" parent="bVFIovwjpj6VSiSoPhs9-20" source="bVFIovwjpj6VSiSoPhs9-5" target="bVFIovwjpj6VSiSoPhs9-2" edge="1">
          <mxGeometry x="-0.0189" y="-8" relative="1" as="geometry">
            <mxPoint x="54" y="182" as="sourcePoint" />
            <mxPoint x="157" y="252" as="targetPoint" />
            <Array as="points">
              <mxPoint x="195" y="182" />
            </Array>
            <mxPoint x="1" as="offset" />
          </mxGeometry>
        </mxCell>
        <mxCell id="bVFIovwjpj6VSiSoPhs9-21" value="&lt;div style=&quot;font-size: 14px; line-height: 120%;&quot;&gt;&lt;span style=&quot;background-color: rgb(255, 255, 255);&quot;&gt;PreprocessInterface&lt;/span&gt;&lt;/div&gt;" style="swimlane;fontStyle=0;childLayout=stackLayout;horizontal=1;startSize=26;fillColor=none;horizontalStack=0;resizeParent=1;resizeParentMax=0;resizeLast=0;collapsible=1;marginBottom=0;whiteSpace=wrap;html=1;align=center;" parent="1" vertex="1">
          <mxGeometry x="-662" y="966" width="339" height="581" as="geometry" />
        </mxCell>
        <mxCell id="bVFIovwjpj6VSiSoPhs9-24" value="&lt;div&gt;char* GetNodeID() = 0;&lt;/div&gt;&lt;div&gt;char* GetPrevious() = 0;&lt;/div&gt;&lt;div&gt;void Define(std::string key, std::string value) = 0;&lt;/div&gt;&lt;div&gt;void UnDefine(std::string key) = 0;&lt;/div&gt;&lt;div&gt;std::string Replace(std::string key) = 0;&lt;/div&gt;&lt;div&gt;void SetVariable(std::string key, std::string value) = 0;&lt;/div&gt;&lt;div&gt;void SetHiddenVariable(std::string key, std::string value) = 0;&lt;/div&gt;&lt;div&gt;char* GetExper() = 0;&lt;/div&gt;&lt;div&gt;char* GetExpers() = 0;&lt;/div&gt;&lt;div&gt;char* GetWBParameter() = 0;&lt;/div&gt;&lt;div&gt;char* GetNodeAfterHoriz(std::string num) = 0;&lt;/div&gt;&lt;div&gt;char* GetNodeAfterVert(std::string num) = 0;&lt;/div&gt;&lt;div&gt;char* GetNodeAfterHorizSub(std::string num) = 0;&lt;/div&gt;&lt;div&gt;char* GetNodeAfterVertSub(std::string num) = 0;&lt;/div&gt;&lt;div&gt;char* GetNodeAfterHorizAdd(std::string num) = 0;&lt;/div&gt;&lt;div&gt;char* GetNodeAfterVertAdd(std::string num) = 0;&lt;/div&gt;&lt;div&gt;char* GetAllNodeByVert() = 0;&lt;/div&gt;&lt;div&gt;char* GetAllNodeByHoriz() = 0;&lt;/div&gt;&lt;div&gt;char* GetHorizFirstNode() = 0;&lt;/div&gt;&lt;div&gt;char* GetVertFirstNode() = 0;&lt;/div&gt;&lt;div&gt;char* GetHorizLastNode() = 0;&lt;/div&gt;&lt;div&gt;char* GetVertLastNode() = 0;&lt;/div&gt;&lt;div&gt;char* GetHorizMinNode() = 0;&lt;/div&gt;&lt;div&gt;char* GetVertMinNode() = 0;&lt;/div&gt;&lt;div&gt;char* GetVertMaxNode() = 0;&lt;/div&gt;&lt;div&gt;char* GetHorizMaxNode() = 0;&lt;/div&gt;&lt;div&gt;char* GetVertIndexNode() = 0;&lt;/div&gt;&lt;div&gt;char* GetHorizIndexNode() = 0;&lt;/div&gt;&lt;div&gt;std::string GetToolLabel(std::string key) = 0;&lt;/div&gt;&lt;div&gt;std::string GetFileType(std::string key) = 0;&lt;/div&gt;&lt;div&gt;std::map&amp;lt;std::string, std::string&amp;gt; tool_label() = 0;&lt;/div&gt;&lt;div&gt;void* GetNodeByNodeId(int node_id) = 0;&lt;/div&gt;&lt;div&gt;const char* ExpressionEval(std::string script) = 0;&lt;/div&gt;&lt;div&gt;const char* ExpressionExpr(std::string script) = 0;&lt;/div&gt;&lt;div&gt;const char* TclBlock(std::string script) = 0;&lt;/div&gt;&lt;div&gt;bool ExpressionExprBool(std::string script) = 0;&lt;/div&gt;&lt;div style=&quot;text-align: center;&quot;&gt;&lt;font style=&quot;font-size: 16px;&quot;&gt;&lt;b&gt;......&lt;/b&gt;&lt;/font&gt;&lt;/div&gt;" style="text;strokeColor=none;fillColor=none;align=left;verticalAlign=top;spacingLeft=4;spacingRight=4;overflow=hidden;rotatable=0;points=[[0,0.5],[1,0.5]];portConstraint=eastwest;whiteSpace=wrap;html=1;" parent="bVFIovwjpj6VSiSoPhs9-21" vertex="1">
          <mxGeometry y="26" width="339" height="555" as="geometry" />
        </mxCell>
        <mxCell id="bVFIovwjpj6VSiSoPhs9-27" value="ListNode: public PreprocessInterface" style="swimlane;fontStyle=0;childLayout=stackLayout;horizontal=1;startSize=26;fillColor=none;horizontalStack=0;resizeParent=1;resizeParentMax=0;resizeLast=0;collapsible=1;marginBottom=0;whiteSpace=wrap;html=1;" parent="1" vertex="1">
          <mxGeometry x="396" y="1018" width="203" height="131" as="geometry" />
        </mxCell>
        <mxCell id="bVFIovwjpj6VSiSoPhs9-29" value="&lt;div style=&quot;font-size: 14px; line-height: 19px;&quot;&gt;&lt;span style=&quot;background-color: rgb(255, 255, 255);&quot;&gt;SimulationTree*&lt;/span&gt;&lt;/div&gt;" style="text;strokeColor=none;fillColor=none;align=left;verticalAlign=top;spacingLeft=4;spacingRight=4;overflow=hidden;rotatable=0;points=[[0,0.5],[1,0.5]];portConstraint=eastwest;whiteSpace=wrap;html=1;" parent="bVFIovwjpj6VSiSoPhs9-27" vertex="1">
          <mxGeometry y="26" width="203" height="105" as="geometry" />
        </mxCell>
        <mxCell id="bVFIovwjpj6VSiSoPhs9-34" value="&lt;b&gt;&lt;font style=&quot;font-size: 16px;&quot;&gt;|&lt;/font&gt;&lt;/b&gt;" style="strokeWidth=2;html=1;shape=mxgraph.flowchart.start_1;whiteSpace=wrap;movable=1;resizable=1;rotatable=1;deletable=1;editable=1;locked=0;connectable=1;" parent="1" vertex="1">
          <mxGeometry x="226" y="1482" width="65" height="30" as="geometry" />
        </mxCell>
        <mxCell id="bVFIovwjpj6VSiSoPhs9-37" value="" style="endArrow=classic;html=1;rounded=0;entryX=0.5;entryY=0;entryDx=0;entryDy=0;movable=1;resizable=1;rotatable=1;deletable=1;editable=1;locked=0;connectable=1;" parent="1" target="bVFIovwjpj6VSiSoPhs9-38" edge="1">
          <mxGeometry width="50" height="50" relative="1" as="geometry">
            <mxPoint x="239" y="1507" as="sourcePoint" />
            <mxPoint x="161" y="1572" as="targetPoint" />
          </mxGeometry>
        </mxCell>
        <mxCell id="bVFIovwjpj6VSiSoPhs9-38" value="&lt;font color=&quot;#ff0000&quot;&gt;node&lt;/font&gt;" style="ellipse;whiteSpace=wrap;html=1;strokeWidth=2;movable=1;resizable=1;rotatable=1;deletable=1;editable=1;locked=0;connectable=1;" parent="1" vertex="1">
          <mxGeometry x="168" y="1562" width="62" height="34" as="geometry" />
        </mxCell>
        <mxCell id="bVFIovwjpj6VSiSoPhs9-41" value="+1" style="ellipse;whiteSpace=wrap;html=1;strokeWidth=2;movable=1;resizable=1;rotatable=1;deletable=1;editable=1;locked=0;connectable=1;" parent="1" vertex="1">
          <mxGeometry x="297" y="1562" width="62" height="34" as="geometry" />
        </mxCell>
        <mxCell id="bVFIovwjpj6VSiSoPhs9-43" value="&lt;span style=&quot;font-size: 16px;&quot;&gt;&lt;b&gt;:&lt;/b&gt;&lt;/span&gt;" style="strokeWidth=2;html=1;shape=mxgraph.flowchart.start_1;whiteSpace=wrap;movable=1;resizable=1;rotatable=1;deletable=1;editable=1;locked=0;connectable=1;" parent="1" vertex="1">
          <mxGeometry x="314" y="1389" width="65" height="30" as="geometry" />
        </mxCell>
        <mxCell id="bVFIovwjpj6VSiSoPhs9-44" value="" style="endArrow=classic;html=1;rounded=0;exitX=0.277;exitY=1;exitDx=0;exitDy=0;exitPerimeter=0;movable=1;resizable=1;rotatable=1;deletable=1;editable=1;locked=0;connectable=1;" parent="1" source="bVFIovwjpj6VSiSoPhs9-43" edge="1">
          <mxGeometry width="50" height="50" relative="1" as="geometry">
            <mxPoint x="249" y="1517" as="sourcePoint" />
            <mxPoint x="264" y="1481" as="targetPoint" />
          </mxGeometry>
        </mxCell>
        <mxCell id="bVFIovwjpj6VSiSoPhs9-45" value="-1" style="ellipse;whiteSpace=wrap;html=1;strokeWidth=2;movable=0;resizable=0;rotatable=0;deletable=0;editable=0;locked=1;connectable=0;" parent="1" vertex="1">
          <mxGeometry x="406" y="1480" width="62" height="34" as="geometry" />
        </mxCell>
        <mxCell id="bVFIovwjpj6VSiSoPhs9-47" value="" style="endArrow=classic;html=1;rounded=0;exitX=0.738;exitY=0.967;exitDx=0;exitDy=0;exitPerimeter=0;entryX=0.5;entryY=0;entryDx=0;entryDy=0;movable=1;resizable=1;rotatable=1;deletable=1;editable=1;locked=0;connectable=1;" parent="1" source="bVFIovwjpj6VSiSoPhs9-43" target="bVFIovwjpj6VSiSoPhs9-45" edge="1">
          <mxGeometry width="50" height="50" relative="1" as="geometry">
            <mxPoint x="-18" y="1547" as="sourcePoint" />
            <mxPoint x="32" y="1497" as="targetPoint" />
          </mxGeometry>
        </mxCell>
        <mxCell id="bVFIovwjpj6VSiSoPhs9-48" value="" style="endArrow=classic;html=1;rounded=0;exitX=0.855;exitY=0.855;exitDx=0;exitDy=0;exitPerimeter=0;entryX=0.5;entryY=0;entryDx=0;entryDy=0;movable=1;resizable=1;rotatable=1;deletable=1;editable=1;locked=0;connectable=1;" parent="1" source="bVFIovwjpj6VSiSoPhs9-34" target="bVFIovwjpj6VSiSoPhs9-41" edge="1">
          <mxGeometry width="50" height="50" relative="1" as="geometry">
            <mxPoint x="-18" y="1547" as="sourcePoint" />
            <mxPoint x="32" y="1497" as="targetPoint" />
          </mxGeometry>
        </mxCell>
        <mxCell id="bVFIovwjpj6VSiSoPhs9-63" value="" style="edgeStyle=orthogonalEdgeStyle;rounded=0;orthogonalLoop=1;jettySize=auto;html=1;" parent="1" source="bVFIovwjpj6VSiSoPhs9-49" target="bVFIovwjpj6VSiSoPhs9-62" edge="1">
          <mxGeometry relative="1" as="geometry" />
        </mxCell>
        <mxCell id="bVFIovwjpj6VSiSoPhs9-49" value="set" style="rounded=0;whiteSpace=wrap;html=1;" parent="1" vertex="1">
          <mxGeometry x="359" y="2095" width="94" height="34" as="geometry" />
        </mxCell>
        <mxCell id="bVFIovwjpj6VSiSoPhs9-50" value="space" style="rounded=0;whiteSpace=wrap;html=1;" parent="1" vertex="1">
          <mxGeometry x="359" y="2064" width="94" height="34" as="geometry" />
        </mxCell>
        <mxCell id="bVFIovwjpj6VSiSoPhs9-51" value="anyword" style="text;html=1;align=center;verticalAlign=middle;resizable=0;points=[];autosize=1;strokeColor=none;fillColor=none;" parent="1" vertex="1">
          <mxGeometry x="293" y="2099" width="63" height="26" as="geometry" />
        </mxCell>
        <mxCell id="bVFIovwjpj6VSiSoPhs9-52" value="space" style="text;html=1;align=center;verticalAlign=middle;resizable=0;points=[];autosize=1;strokeColor=none;fillColor=none;" parent="1" vertex="1">
          <mxGeometry x="303" y="2066" width="50" height="26" as="geometry" />
        </mxCell>
        <mxCell id="bVFIovwjpj6VSiSoPhs9-54" value="Ppitch" style="rounded=0;whiteSpace=wrap;html=1;" parent="1" vertex="1">
          <mxGeometry x="359" y="2034" width="94" height="34" as="geometry" />
        </mxCell>
        <mxCell id="bVFIovwjpj6VSiSoPhs9-55" value="anyword" style="text;html=1;align=center;verticalAlign=middle;resizable=0;points=[];autosize=1;strokeColor=none;fillColor=none;" parent="1" vertex="1">
          <mxGeometry x="293" y="2036" width="63" height="26" as="geometry" />
        </mxCell>
        <mxCell id="bVFIovwjpj6VSiSoPhs9-56" value="space" style="rounded=0;whiteSpace=wrap;html=1;" parent="1" vertex="1">
          <mxGeometry x="359" y="2002" width="94" height="34" as="geometry" />
        </mxCell>
        <mxCell id="bVFIovwjpj6VSiSoPhs9-57" value="@&amp;lt;" style="rounded=0;whiteSpace=wrap;html=1;" parent="1" vertex="1">
          <mxGeometry x="359" y="1970" width="94" height="34" as="geometry" />
        </mxCell>
        <mxCell id="bVFIovwjpj6VSiSoPhs9-58" value="space" style="text;html=1;align=center;verticalAlign=middle;resizable=0;points=[];autosize=1;strokeColor=none;fillColor=none;" parent="1" vertex="1">
          <mxGeometry x="299.5" y="2006" width="50" height="26" as="geometry" />
        </mxCell>
        <mxCell id="bVFIovwjpj6VSiSoPhs9-59" value="expression_eval_start" style="text;html=1;align=center;verticalAlign=middle;resizable=0;points=[];autosize=1;strokeColor=none;fillColor=none;" parent="1" vertex="1">
          <mxGeometry x="218" y="1976" width="135" height="26" as="geometry" />
        </mxCell>
        <mxCell id="bVFIovwjpj6VSiSoPhs9-62" value="set" style="rounded=0;whiteSpace=wrap;html=1;" parent="1" vertex="1">
          <mxGeometry x="559" y="2096.5" width="77" height="31" as="geometry" />
        </mxCell>
        <mxCell id="bVFIovwjpj6VSiSoPhs9-64" value="define replace" style="text;html=1;align=center;verticalAlign=middle;resizable=0;points=[];autosize=1;strokeColor=none;fillColor=none;" parent="1" vertex="1">
          <mxGeometry x="453" y="2088" width="93" height="26" as="geometry" />
        </mxCell>
        <mxCell id="bVFIovwjpj6VSiSoPhs9-68" value="Ppitch" style="rounded=0;whiteSpace=wrap;html=1;" parent="1" vertex="1">
          <mxGeometry x="559" y="2037" width="77" height="31" as="geometry" />
        </mxCell>
        <mxCell id="bVFIovwjpj6VSiSoPhs9-69" value="define replace" style="text;html=1;align=center;verticalAlign=middle;resizable=0;points=[];autosize=1;strokeColor=none;fillColor=none;" parent="1" vertex="1">
          <mxGeometry x="455" y="2029.25" width="93" height="26" as="geometry" />
        </mxCell>
        <mxCell id="bVFIovwjpj6VSiSoPhs9-71" value="" style="edgeStyle=orthogonalEdgeStyle;rounded=0;orthogonalLoop=1;jettySize=auto;html=1;" parent="1" edge="1">
          <mxGeometry relative="1" as="geometry">
            <mxPoint x="453" y="2055.25" as="sourcePoint" />
            <mxPoint x="559" y="2055.25" as="targetPoint" />
          </mxGeometry>
        </mxCell>
        <mxCell id="bVFIovwjpj6VSiSoPhs9-75" value="22.03e" style="rounded=0;whiteSpace=wrap;html=1;" parent="1" vertex="1">
          <mxGeometry x="359" y="1939" width="94" height="34" as="geometry" />
        </mxCell>
        <mxCell id="bVFIovwjpj6VSiSoPhs9-76" value="-" style="rounded=0;whiteSpace=wrap;html=1;" parent="1" vertex="1">
          <mxGeometry x="359" y="1905" width="94" height="34" as="geometry" />
        </mxCell>
        <mxCell id="bVFIovwjpj6VSiSoPhs9-77" value="3" style="rounded=0;whiteSpace=wrap;html=1;" parent="1" vertex="1">
          <mxGeometry x="359" y="1871" width="94" height="34" as="geometry" />
        </mxCell>
        <mxCell id="bVFIovwjpj6VSiSoPhs9-78" value="+" style="rounded=0;whiteSpace=wrap;html=1;" parent="1" vertex="1">
          <mxGeometry x="359" y="1837" width="94" height="34" as="geometry" />
        </mxCell>
        <mxCell id="bVFIovwjpj6VSiSoPhs9-79" value="L" style="rounded=0;whiteSpace=wrap;html=1;" parent="1" vertex="1">
          <mxGeometry x="359" y="1803" width="94" height="34" as="geometry" />
        </mxCell>
        <mxCell id="bVFIovwjpj6VSiSoPhs9-80" value="&amp;gt;@" style="rounded=0;whiteSpace=wrap;html=1;" parent="1" vertex="1">
          <mxGeometry x="359" y="1769" width="94" height="34" as="geometry" />
        </mxCell>
        <mxCell id="bVFIovwjpj6VSiSoPhs9-81" value="expression_eval_end" style="text;html=1;align=center;verticalAlign=middle;resizable=0;points=[];autosize=1;strokeColor=none;fillColor=none;" parent="1" vertex="1">
          <mxGeometry x="223" y="1769" width="131" height="26" as="geometry" />
        </mxCell>
        <mxCell id="bVFIovwjpj6VSiSoPhs9-82" value="anyword" style="text;html=1;align=center;verticalAlign=middle;resizable=0;points=[];autosize=1;strokeColor=none;fillColor=none;" parent="1" vertex="1">
          <mxGeometry x="286.5" y="1805" width="63" height="26" as="geometry" />
        </mxCell>
        <mxCell id="bVFIovwjpj6VSiSoPhs9-83" value="add" style="text;html=1;align=center;verticalAlign=middle;resizable=0;points=[];autosize=1;strokeColor=none;fillColor=none;" parent="1" vertex="1">
          <mxGeometry x="299" y="1839" width="38" height="26" as="geometry" />
        </mxCell>
        <mxCell id="bVFIovwjpj6VSiSoPhs9-84" value="sub" style="text;html=1;align=center;verticalAlign=middle;resizable=0;points=[];autosize=1;strokeColor=none;fillColor=none;" parent="1" vertex="1">
          <mxGeometry x="306.5" y="1909" width="37" height="26" as="geometry" />
        </mxCell>
        <mxCell id="bVFIovwjpj6VSiSoPhs9-85" value="anyword" style="text;html=1;align=center;verticalAlign=middle;resizable=0;points=[];autosize=1;strokeColor=none;fillColor=none;" parent="1" vertex="1">
          <mxGeometry x="298" y="1944" width="63" height="26" as="geometry" />
        </mxCell>
        <mxCell id="bVFIovwjpj6VSiSoPhs9-86" value="num" style="text;html=1;align=center;verticalAlign=middle;resizable=0;points=[];autosize=1;strokeColor=none;fillColor=none;" parent="1" vertex="1">
          <mxGeometry x="302" y="1875" width="41" height="26" as="geometry" />
        </mxCell>
        <mxCell id="bVFIovwjpj6VSiSoPhs9-87" value="22.03e" style="rounded=0;whiteSpace=wrap;html=1;" parent="1" vertex="1">
          <mxGeometry x="559" y="1942" width="77" height="31" as="geometry" />
        </mxCell>
        <mxCell id="bVFIovwjpj6VSiSoPhs9-88" value="define replace" style="text;html=1;align=center;verticalAlign=middle;resizable=0;points=[];autosize=1;strokeColor=none;fillColor=none;" parent="1" vertex="1">
          <mxGeometry x="455" y="1934.25" width="93" height="26" as="geometry" />
        </mxCell>
        <mxCell id="bVFIovwjpj6VSiSoPhs9-89" value="" style="edgeStyle=orthogonalEdgeStyle;rounded=0;orthogonalLoop=1;jettySize=auto;html=1;" parent="1" edge="1">
          <mxGeometry relative="1" as="geometry">
            <mxPoint x="453" y="1960.25" as="sourcePoint" />
            <mxPoint x="559" y="1960.25" as="targetPoint" />
          </mxGeometry>
        </mxCell>
        <mxCell id="bVFIovwjpj6VSiSoPhs9-90" value="nMOS" style="rounded=0;whiteSpace=wrap;html=1;" parent="1" vertex="1">
          <mxGeometry x="559" y="1808" width="77" height="31" as="geometry" />
        </mxCell>
        <mxCell id="bVFIovwjpj6VSiSoPhs9-91" value="replace" style="text;html=1;align=center;verticalAlign=middle;resizable=0;points=[];autosize=1;strokeColor=none;fillColor=none;" parent="1" vertex="1">
          <mxGeometry x="473" y="1800.25" width="57" height="26" as="geometry" />
        </mxCell>
        <mxCell id="bVFIovwjpj6VSiSoPhs9-92" value="" style="edgeStyle=orthogonalEdgeStyle;rounded=0;orthogonalLoop=1;jettySize=auto;html=1;" parent="1" edge="1">
          <mxGeometry relative="1" as="geometry">
            <mxPoint x="453" y="1826.25" as="sourcePoint" />
            <mxPoint x="559" y="1826.25" as="targetPoint" />
          </mxGeometry>
        </mxCell>
      </root>
    </mxGraphModel>
  </diagram>
</mxfile>
